<?xml version="1.0" encoding="UTF-8" standalone="no"?>
<!DOCTYPE svg PUBLIC "-//W3C//DTD SVG 1.0//EN" "http://www.w3.org/TR/2001/REC-SVG-20010904/DTD/svg10.dtd">
<!-- Generated by dot version 2.8 (Fri Nov 17 20:26:27 UTC 2006)
     For user: (vineet) Vineet Kumar,,, -->
<!-- Title: G Pages: 1 -->
<svg width="494pt" height="476pt" viewBox="0 0 494 476" xmlns="http://www.w3.org/2000/svg" xmlns:xlink="http://www.w3.org/1999/xlink">
<g id="graph0" class="graph" style="font-family:Times-Roman;font-size:14.00;">
<title>G</title>
<polygon style="fill:white;stroke:white;" points="-2,478 -2,-2 496,-2 496,478 -2,478"/>
<!-- s00 -->
<g id="node1" class="node"><title>s00</title>
<polygon style="fill:#fff0f0;stroke:black;" points="167,40 370,40 370,4 167,4 167,40"/>
<text text-anchor="middle" x="182" y="27">38</text>
<polyline style="fill:none;stroke:black;" points="198,40 198,4 "/>
<text text-anchor="middle" x="213" y="27">27</text>
<polyline style="fill:none;stroke:black;" points="229,40 229,4 "/>
<text text-anchor="middle" x="244" y="27">43</text>
<polyline style="fill:none;stroke:black;" points="260,40 260,4 "/>
<text text-anchor="middle" x="272" y="27">3</text>
<polyline style="fill:none;stroke:black;" points="284,40 284,4 "/>
<text text-anchor="middle" x="296" y="27">9</text>
<polyline style="fill:none;stroke:black;" points="308,40 308,4 "/>
<text text-anchor="middle" x="323" y="27">82</text>
<polyline style="fill:none;stroke:black;" points="339,40 339,4 "/>
<text text-anchor="middle" x="354" y="27">10</text>
</g>
<!-- s10 -->
<g id="node3" class="node"><title>s10</title>
<polygon style="fill:#fff0f0;stroke:black;" points="141,112 258,112 258,76 141,76 141,112"/>
<text text-anchor="middle" x="156" y="99">38</text>
<polyline style="fill:none;stroke:black;" points="172,112 172,76 "/>
<text text-anchor="middle" x="187" y="99">27</text>
<polyline style="fill:none;stroke:black;" points="203,112 203,76 "/>
<text text-anchor="middle" x="218" y="99">43</text>
<polyline style="fill:none;stroke:black;" points="234,112 234,76 "/>
<text text-anchor="middle" x="246" y="99">3</text>
</g>
<!-- s00&#45;&gt;s10 -->
<g id="edge2" class="edge"><title>s00-&gt;s10</title>
<path style="fill:none;stroke:red;" d="M251,40C242,49 232,59 223,69"/>
<polygon style="fill:red;stroke:red;" points="226,71 216,76 221,66 226,71"/>
</g>
<!-- s11 -->
<g id="node5" class="node"><title>s11</title>
<polygon style="fill:#fff0f0;stroke:black;" points="294,112 380,112 380,76 294,76 294,112"/>
<text text-anchor="middle" x="306" y="99">9</text>
<polyline style="fill:none;stroke:black;" points="318,112 318,76 "/>
<text text-anchor="middle" x="333" y="99">82</text>
<polyline style="fill:none;stroke:black;" points="349,112 349,76 "/>
<text text-anchor="middle" x="364" y="99">10</text>
</g>
<!-- s00&#45;&gt;s11 -->
<g id="edge4" class="edge"><title>s00-&gt;s11</title>
<path style="fill:none;stroke:red;" d="M285,40C294,49 304,59 313,69"/>
<polygon style="fill:red;stroke:red;" points="315,66 320,76 310,71 315,66"/>
</g>
<!-- s20 -->
<g id="node7" class="node"><title>s20</title>
<polygon style="fill:#fff0f0;stroke:black;" points="72,184 134,184 134,148 72,148 72,184"/>
<text text-anchor="middle" x="87" y="171">38</text>
<polyline style="fill:none;stroke:black;" points="103,184 103,148 "/>
<text text-anchor="middle" x="118" y="171">27</text>
</g>
<!-- s10&#45;&gt;s20 -->
<g id="edge6" class="edge"><title>s10-&gt;s20</title>
<path style="fill:none;stroke:red;" d="M175,112C163,121 148,132 135,142"/>
<polygon style="fill:red;stroke:red;" points="137,145 127,148 133,139 137,145"/>
</g>
<!-- s21 -->
<g id="node9" class="node"><title>s21</title>
<polygon style="fill:#fff0f0;stroke:black;" points="172,184 227,184 227,148 172,148 172,184"/>
<text text-anchor="middle" x="187" y="171">43</text>
<polyline style="fill:none;stroke:black;" points="203,184 203,148 "/>
<text text-anchor="middle" x="215" y="171">3</text>
</g>
<!-- s10&#45;&gt;s21 -->
<g id="edge8" class="edge"><title>s10-&gt;s21</title>
<path style="fill:none;stroke:red;" d="M199,112C199,120 199,129 199,138"/>
<polygon style="fill:red;stroke:red;" points="203,138 199,148 196,138 203,138"/>
</g>
<!-- s22 -->
<g id="node11" class="node"><title>s22</title>
<polygon style="fill:#fff0f0;stroke:black;" points="310,184 365,184 365,148 310,148 310,184"/>
<text text-anchor="middle" x="322" y="171">9</text>
<polyline style="fill:none;stroke:black;" points="334,184 334,148 "/>
<text text-anchor="middle" x="349" y="171">82</text>
</g>
<!-- s11&#45;&gt;s22 -->
<g id="edge10" class="edge"><title>s11-&gt;s22</title>
<path style="fill:none;stroke:red;" d="M337,112C337,120 337,129 337,138"/>
<polygon style="fill:red;stroke:red;" points="341,138 337,148 334,138 341,138"/>
</g>
<!-- s23 -->
<g id="node25" class="node"><title>s23</title>
<polygon style="fill:#fff0f0;stroke:black;" points="418,184 472,184 472,148 418,148 418,184"/>
<text text-anchor="middle" x="445" y="171">10</text>
</g>
<!-- s11&#45;&gt;s23 -->
<g id="edge24" class="edge"><title>s11-&gt;s23</title>
<path style="fill:none;stroke:red;" d="M364,112C378,121 395,132 409,142"/>
<polygon style="fill:red;stroke:red;" points="412,140 418,148 408,145 412,140"/>
</g>
<!-- s30 -->
<g id="node13" class="node"><title>s30</title>
<polygon style="fill:#f0f0f0;stroke:black;" points="4,256 58,256 58,220 4,220 4,256"/>
<text text-anchor="middle" x="31" y="243">38</text>
</g>
<!-- s20&#45;&gt;s30 -->
<g id="edge12" class="edge"><title>s20-&gt;s30</title>
<path style="fill:none;stroke:red;" d="M85,184C76,193 66,203 56,213"/>
<polygon style="fill:red;stroke:red;" points="59,215 49,220 54,210 59,215"/>
</g>
<!-- s31 -->
<g id="node15" class="node"><title>s31</title>
<polygon style="fill:#f0f0f0;stroke:black;" points="76,256 130,256 130,220 76,220 76,256"/>
<text text-anchor="middle" x="103" y="243">27</text>
</g>
<!-- s20&#45;&gt;s31 -->
<g id="edge14" class="edge"><title>s20-&gt;s31</title>
<path style="fill:none;stroke:red;" d="M103,184C103,192 103,201 103,210"/>
<polygon style="fill:red;stroke:red;" points="107,210 103,220 100,210 107,210"/>
</g>
<!-- s32 -->
<g id="node17" class="node"><title>s32</title>
<polygon style="fill:#f0f0f0;stroke:black;" points="148,256 202,256 202,220 148,220 148,256"/>
<text text-anchor="middle" x="175" y="243">43</text>
</g>
<!-- s21&#45;&gt;s32 -->
<g id="edge16" class="edge"><title>s21-&gt;s32</title>
<path style="fill:none;stroke:red;" d="M193,184C190,192 187,202 184,210"/>
<polygon style="fill:red;stroke:red;" points="187,211 181,220 181,209 187,211"/>
</g>
<!-- s33 -->
<g id="node19" class="node"><title>s33</title>
<polygon style="fill:#f0f0f0;stroke:black;" points="220,256 274,256 274,220 220,220 220,256"/>
<text text-anchor="middle" x="247" y="243">3</text>
</g>
<!-- s21&#45;&gt;s33 -->
<g id="edge18" class="edge"><title>s21-&gt;s33</title>
<path style="fill:none;stroke:red;" d="M211,184C216,192 223,202 229,212"/>
<polygon style="fill:red;stroke:red;" points="232,210 235,220 226,214 232,210"/>
</g>
<!-- s34 -->
<g id="node21" class="node"><title>s34</title>
<polygon style="fill:#f0f0f0;stroke:black;" points="292,256 346,256 346,220 292,220 292,256"/>
<text text-anchor="middle" x="319" y="243">9</text>
</g>
<!-- s22&#45;&gt;s34 -->
<g id="edge20" class="edge"><title>s22-&gt;s34</title>
<path style="fill:none;stroke:red;" d="M332,184C330,192 328,201 326,210"/>
<polygon style="fill:red;stroke:red;" points="329,211 323,220 323,209 329,211"/>
</g>
<!-- s35 -->
<g id="node23" class="node"><title>s35</title>
<polygon style="fill:#f0f0f0;stroke:black;" points="364,256 418,256 418,220 364,220 364,256"/>
<text text-anchor="middle" x="391" y="243">82</text>
</g>
<!-- s22&#45;&gt;s35 -->
<g id="edge22" class="edge"><title>s22-&gt;s35</title>
<path style="fill:none;stroke:red;" d="M351,184C357,192 365,203 372,212"/>
<polygon style="fill:red;stroke:red;" points="375,210 378,220 369,214 375,210"/>
</g>
<!-- s40 -->
<g id="node29" class="node"><title>s40</title>
<polygon style="fill:#f0fff0;stroke:black;" points="72,328 134,328 134,292 72,292 72,328"/>
<text text-anchor="middle" x="87" y="315">27</text>
<polyline style="fill:none;stroke:black;" points="103,328 103,292 "/>
<text text-anchor="middle" x="118" y="315">38</text>
</g>
<!-- s30&#45;&gt;s40 -->
<g id="edge28" class="edge"><title>s30-&gt;s40</title>
<path style="fill:none;stroke:green;" d="M49,256C58,265 68,275 78,285"/>
<polygon style="fill:green;stroke:green;" points="80,282 85,292 75,287 80,282"/>
</g>
<!-- s31&#45;&gt;s40 -->
<g id="edge30" class="edge"><title>s31-&gt;s40</title>
<path style="fill:none;stroke:green;" d="M103,256C103,264 103,273 103,282"/>
<polygon style="fill:green;stroke:green;" points="107,282 103,292 100,282 107,282"/>
</g>
<!-- s41 -->
<g id="node32" class="node"><title>s41</title>
<polygon style="fill:#f0fff0;stroke:black;" points="172,328 227,328 227,292 172,292 172,328"/>
<text text-anchor="middle" x="184" y="315">3</text>
<polyline style="fill:none;stroke:black;" points="196,328 196,292 "/>
<text text-anchor="middle" x="211" y="315">43</text>
</g>
<!-- s32&#45;&gt;s41 -->
<g id="edge32" class="edge"><title>s32-&gt;s41</title>
<path style="fill:none;stroke:green;" d="M181,256C184,264 187,274 190,282"/>
<polygon style="fill:green;stroke:green;" points="193,281 193,292 187,283 193,281"/>
</g>
<!-- s33&#45;&gt;s41 -->
<g id="edge34" class="edge"><title>s33-&gt;s41</title>
<path style="fill:none;stroke:green;" d="M235,256C230,264 223,274 217,284"/>
<polygon style="fill:green;stroke:green;" points="220,286 211,292 214,282 220,286"/>
</g>
<!-- s42 -->
<g id="node35" class="node"><title>s42</title>
<polygon style="fill:#f0fff0;stroke:black;" points="310,328 365,328 365,292 310,292 310,328"/>
<text text-anchor="middle" x="322" y="315">9</text>
<polyline style="fill:none;stroke:black;" points="334,328 334,292 "/>
<text text-anchor="middle" x="349" y="315">82</text>
</g>
<!-- s34&#45;&gt;s42 -->
<g id="edge36" class="edge"><title>s34-&gt;s42</title>
<path style="fill:none;stroke:green;" d="M324,256C326,264 328,273 330,282"/>
<polygon style="fill:green;stroke:green;" points="333,281 333,292 327,283 333,281"/>
</g>
<!-- s35&#45;&gt;s42 -->
<g id="edge38" class="edge"><title>s35-&gt;s42</title>
<path style="fill:none;stroke:green;" d="M377,256C371,264 363,275 356,284"/>
<polygon style="fill:green;stroke:green;" points="359,286 350,292 353,282 359,286"/>
</g>
<!-- s36 -->
<g id="node27" class="node"><title>s36</title>
<polygon style="fill:#f0f0f0;stroke:black;" points="436,256 490,256 490,220 436,220 436,256"/>
<text text-anchor="middle" x="463" y="243">10</text>
</g>
<!-- s23&#45;&gt;s36 -->
<g id="edge26" class="edge"><title>s23-&gt;s36</title>
<path style="fill:none;stroke:red;" d="M450,184C452,192 454,201 456,210"/>
<polygon style="fill:red;stroke:red;" points="459,209 459,220 453,211 459,209"/>
</g>
<!-- s43 -->
<g id="node38" class="node"><title>s43</title>
<polygon style="fill:#f0fff0;stroke:black;" points="418,328 472,328 472,292 418,292 418,328"/>
<text text-anchor="middle" x="445" y="315">10</text>
</g>
<!-- s36&#45;&gt;s43 -->
<g id="edge40" class="edge"><title>s36-&gt;s43</title>
<path style="fill:none;stroke:green;" d="M458,256C456,264 454,273 452,282"/>
<polygon style="fill:green;stroke:green;" points="455,283 449,292 449,281 455,283"/>
</g>
<!-- s50 -->
<g id="node40" class="node"><title>s50</title>
<polygon style="fill:#f0fff0;stroke:black;" points="141,400 258,400 258,364 141,364 141,400"/>
<text text-anchor="middle" x="153" y="387">3</text>
<polyline style="fill:none;stroke:black;" points="165,400 165,364 "/>
<text text-anchor="middle" x="180" y="387">27</text>
<polyline style="fill:none;stroke:black;" points="196,400 196,364 "/>
<text text-anchor="middle" x="211" y="387">38</text>
<polyline style="fill:none;stroke:black;" points="227,400 227,364 "/>
<text text-anchor="middle" x="242" y="387">43</text>
</g>
<!-- s40&#45;&gt;s50 -->
<g id="edge42" class="edge"><title>s40-&gt;s50</title>
<path style="fill:none;stroke:green;" d="M127,328C139,337 154,348 167,358"/>
<polygon style="fill:green;stroke:green;" points="169,355 175,364 165,361 169,355"/>
</g>
<!-- s41&#45;&gt;s50 -->
<g id="edge44" class="edge"><title>s41-&gt;s50</title>
<path style="fill:none;stroke:green;" d="M199,328C199,336 199,345 199,354"/>
<polygon style="fill:green;stroke:green;" points="203,354 199,364 196,354 203,354"/>
</g>
<!-- s51 -->
<g id="node43" class="node"><title>s51</title>
<polygon style="fill:#f0fff0;stroke:black;" points="294,400 380,400 380,364 294,364 294,400"/>
<text text-anchor="middle" x="306" y="387">9</text>
<polyline style="fill:none;stroke:black;" points="318,400 318,364 "/>
<text text-anchor="middle" x="333" y="387">10</text>
<polyline style="fill:none;stroke:black;" points="349,400 349,364 "/>
<text text-anchor="middle" x="364" y="387">82</text>
</g>
<!-- s42&#45;&gt;s51 -->
<g id="edge46" class="edge"><title>s42-&gt;s51</title>
<path style="fill:none;stroke:green;" d="M337,328C337,336 337,345 337,354"/>
<polygon style="fill:green;stroke:green;" points="341,354 337,364 334,354 341,354"/>
</g>
<!-- s43&#45;&gt;s51 -->
<g id="edge48" class="edge"><title>s43-&gt;s51</title>
<path style="fill:none;stroke:green;" d="M418,328C405,337 387,348 372,358"/>
<polygon style="fill:green;stroke:green;" points="374,361 364,364 370,355 374,361"/>
</g>
<!-- s60 -->
<g id="node46" class="node"><title>s60</title>
<polygon style="fill:#f0fff0;stroke:black;" points="167,472 370,472 370,436 167,436 167,472"/>
<text text-anchor="middle" x="179" y="459">3</text>
<polyline style="fill:none;stroke:black;" points="191,472 191,436 "/>
<text text-anchor="middle" x="203" y="459">9</text>
<polyline style="fill:none;stroke:black;" points="215,472 215,436 "/>
<text text-anchor="middle" x="230" y="459">10</text>
<polyline style="fill:none;stroke:black;" points="246,472 246,436 "/>
<text text-anchor="middle" x="261" y="459">27</text>
<polyline style="fill:none;stroke:black;" points="277,472 277,436 "/>
<text text-anchor="middle" x="292" y="459">38</text>
<polyline style="fill:none;stroke:black;" points="308,472 308,436 "/>
<text text-anchor="middle" x="323" y="459">43</text>
<polyline style="fill:none;stroke:black;" points="339,472 339,436 "/>
<text text-anchor="middle" x="354" y="459">82</text>
</g>
<!-- s50&#45;&gt;s60 -->
<g id="edge50" class="edge"><title>s50-&gt;s60</title>
<path style="fill:none;stroke:green;" d="M216,400C225,409 235,419 244,429"/>
<polygon style="fill:green;stroke:green;" points="246,426 251,436 241,431 246,426"/>
</g>
<!-- s51&#45;&gt;s60 -->
<g id="edge52" class="edge"><title>s51-&gt;s60</title>
<path style="fill:none;stroke:green;" d="M320,400C311,409 301,419 292,429"/>
<polygon style="fill:green;stroke:green;" points="295,431 285,436 290,426 295,431"/>
</g>
</g>
</svg>
